<?xml version="1.0" encoding="utf-8"?>
<!-- Generator: Adobe Illustrator 26.0.3, SVG Export Plug-In . SVG Version: 6.00 Build 0)  -->
<svg version="1.1" id="explode-icon" xmlns="http://www.w3.org/2000/svg" xmlns:xlink="http://www.w3.org/1999/xlink" x="0px"
	 y="0px" viewBox="0 0 129.9 129.9" style="enable-background:new 0 0 129.9 129.9;" xml:space="preserve">
<style type="text/css">
	.st0{fill-rule:evenodd;clip-rule:evenodd;fill:#FF4E00;}
	.st1{fill-rule:evenodd;clip-rule:evenodd;fill:#FC9C1F;}
	.st2{fill-rule:evenodd;clip-rule:evenodd;fill:#FFC817;}
</style>
<path id="explosion_copy_3" class="st0" d="M16.7,113.4L52.4,100l10.4,29.5l27.6-33l39.4,18.9L101,73.4l25.5-12.2L101,53.4
	l13.3-48.7L87.6,34.6L76.8,0.4l-6.5,36.5L39,0.6L44.2,36L22,28.2l14.4,15.5L0,44.6L28.6,68L3.4,80.2l34.4-1.1L16.7,113.4z"/>
<path id="explosion_copy_3-2" class="st1" d="M28.5,103.6l27.2-10.7l8.4,24.6l24.5-29.3l26.3,14L93.2,71.6l20.3-9.2l-20.3-5.3
	L103.9,23L85.7,43.2l-7.2-23.3l-6.4,27.4l-26.4-33l4.5,28.8l-13.8-4.9l8.5,10.7l-30.4,0.6L37,68.2l-12.8,7.3l23.7,0.3L28.5,103.6z"
	/>
<path id="explosion_copy_3-2_00000100368723122077598560000015657174504075335857_" class="st2" d="M41.3,91.4l18.2-7l6.1,18.1
	l19.1-21.7L99.4,89L85.2,70.3L97.1,65L84,61.8l7.9-20L81.5,52.6l-5-13.7l-4.2,17.7L52.8,33.4l2.9,17.2l-7.9-2.4l5.6,6.2l-24.3,0.9
	l17.4,13.6l-7.7,3.3l16.3,0.1L41.3,91.4z"/>
</svg>
