<svg id="explode6" xmlns="http://www.w3.org/2000/svg" width="131" height="109" viewBox="0 0 131 109">
  <metadata><?xpacket begin="﻿" id="W5M0MpCehiHzreSzNTczkc9d"?>
<x:xmpmeta xmlns:x="adobe:ns:meta/" x:xmptk="Adobe XMP Core 5.6-c140 79.160451, 2017/05/06-01:08:21        ">
   <rdf:RDF xmlns:rdf="http://www.w3.org/1999/02/22-rdf-syntax-ns#">
      <rdf:Description rdf:about=""/>
   </rdf:RDF>
</x:xmpmeta>
                                                                                                    
                                                                                                    
                                                                                                    
                                                                                                    
                                                                                                    
                                                                                                    
                                                                                                    
                                                                                                    
                                                                                                    
                                                                                                    
                                                                                                    
                                                                                                    
                                                                                                    
                                                                                                    
                                                                                                    
                                                                                                    
                                                                                                    
                                                                                                    
                                                                                                    
                                                                                                    
                           
<?xpacket end="w"?></metadata>
<defs>
    <style>
      .cls-1 {
        fill: #ff8700;
      }

      .cls-1, .cls-2 {
        fill-rule: evenodd;
      }

      .cls-2 {
        fill: #ff9c00;
      }
    </style>
  </defs>
  <path id="explosion" class="cls-1" d="M10,94L52,80l5,29L80,78l37,22L91,62l23-11L91,44,103,0,79,27,69,1,67,30,33,0,48,33,28,26,41,40,0,36,41,56,13,67l31-1Z"/>
  <path id="explosion_copy_2" data-name="explosion copy 2" class="cls-2" d="M26,85L56,74l3,25L80,72l25,16L85,60.661,104,52,85,47,95,15,78,34,71,17,70,39,43,13,55.231,40.706,40,34l8,10L18,41,50.385,56.532,31,63l21.462,0.413Z"/>
</svg>
