<svg xmlns="http://www.w3.org/2000/svg" viewBox="0 0 129.9 129.9"><defs><style>.cls-1{fill:#ff4e00;}.cls-1,.cls-2,.cls-3{fill-rule:evenodd;}.cls-2{fill:#fc9c1f;}.cls-3{fill:#ffc817;}</style></defs><g id="explosion"><path id="explosion_copy_3" data-name="explosion copy 3" class="cls-1" d="M16.7,113.4,52.4,100l10.4,29.5,27.6-33,39.4,18.9L101,73.4l25.5-12.2L101,53.4,114.3,4.7,87.6,34.6,76.8.4,70.3,36.9,39,.6,44.2,36,22,28.2,36.4,43.7,0,44.6,28.6,68,3.4,80.2l34.4-1.1Z"/><path id="explosion_copy_3-2" data-name="explosion copy 3-2" class="cls-2" d="M28.5,103.6,55.7,92.9l8.4,24.6L88.6,88.2l26.3,14L93.2,71.6l20.3-9.2L93.2,57.1,103.9,23,85.7,43.2,78.5,19.9,72.1,47.3l-26.4-33,4.5,28.8L36.4,38.2l8.5,10.7-30.4.6L37,68.2,24.2,75.5l23.7.3Z"/><path id="explosion_copy_3-2-2" data-name="explosion copy 3-2" class="cls-3" d="M41.3,91.4l18.2-7,6.1,18.1L84.7,80.8,99.4,89,85.2,70.3,97.1,65,84,61.8l7.9-20L81.5,52.6l-5-13.7L72.3,56.6,52.8,33.4l2.9,17.2-7.9-2.4,5.6,6.2-24.3.9L46.5,68.9l-7.7,3.3,16.3.1Z"/></g></svg>