<svg xmlns="http://www.w3.org/2000/svg" viewBox="0 0 129.9 129.9"><defs><style>.cls-1{fill:#ff4e00;}.cls-1,.cls-2,.cls-3{fill-rule:evenodd;}.cls-2{fill:#fc9c1f;}.cls-3{fill:#ffc817;}</style></defs><g id="explosion"><path id="explosion_copy_3" data-name="explosion copy 3" class="cls-1" d="M16.7,113.4,52.4,100l10.4,29.5,27.6-33,39.4,18.9L101,73.4l25.5-12.2L101,53.4,114.3,4.7,87.6,34.6,76.8.4,70.3,36.9,39,.6,44.2,36,22,28.2,36.4,43.7,0,44.6,28.6,68,3.4,80.2l34.4-1.1Z"/><path id="explosion_copy_3-2" data-name="explosion copy 3-2" class="cls-2" d="M35,96.89l22.35-8.8,6.91,20.22L84.34,84.23,106,95.73,88.12,70.58,104.81,63,88.12,58.67l8.8-28L82,47.24,76,28.09,70.78,50.61,49.08,23.49l3.7,23.67-11.34-4,7,8.8-25,.49L41.93,67.79l-10.52,6L50.89,74Z"/><path id="explosion_copy_3-2-2" data-name="explosion copy 3-2" class="cls-3" d="M50.8,81.69l10.67-4.1L65,88.2l11.2-12.72,8.61,4.81-8.32-11,7-3.11-7.67-1.87,4.63-11.73L74.36,59l-2.93-8L69,61.3,57.54,47.7l1.7,10.08-4.63-1.41L57.89,60l-14.24.53,10.2,8-4.52,1.93,9.56.06Z"/></g></svg>